<?xml version="1.0" encoding="UTF-8"?>
<!DOCTYPE svg PUBLIC "-//W3C//DTD SVG 1.1//EN" "http://www.w3.org/Graphics/SVG/1.1/DTD/svg11.dtd">
<svg xmlns="http://www.w3.org/2000/svg" version="1.1" width="512px" height="512px" style="shape-rendering:geometricPrecision; text-rendering:geometricPrecision; image-rendering:optimizeQuality; fill-rule:evenodd; clip-rule:evenodd" xmlns:xlink="http://www.w3.org/1999/xlink">
<g><path style="opacity:0.981" fill="#f9db5f" d="M 236.5,-0.5 C 249.167,-0.5 261.833,-0.5 274.5,-0.5C 300.44,2.30211 323.107,12.4688 342.5,30C 351.803,40.3039 361.47,50.3039 371.5,60C 388.402,74.4125 408.069,81.0792 430.5,80C 439.251,82.6611 442.417,88.4944 440,97.5C 438.042,104.878 435.209,111.878 431.5,118.5C 412.583,116.95 394.25,112.783 376.5,106C 368.333,102.087 360.667,97.42 353.5,92C 340.833,80.6667 328.833,68.6667 317.5,56C 299.245,40.635 278.079,33.8016 254,35.5C 230.932,34.1007 210.766,40.934 193.5,56C 181.134,70.0337 167.8,83.0337 153.5,95C 140.992,103.508 127.325,109.508 112.5,113C 101.462,114.885 90.4618,116.719 79.5,118.5C 73.2971,109.062 70.4637,98.729 71,87.5C 72.7199,83.2173 75.8866,80.7173 80.5,80C 102.931,81.0792 122.598,74.4125 139.5,60C 149.53,50.3039 159.197,40.3039 168.5,30C 187.893,12.4688 210.56,2.30211 236.5,-0.5 Z"/></g>
<g><path style="opacity:0.998" fill="#3a484a" d="M 431.5,118.5 C 423.656,132.866 415.322,146.866 406.5,160.5C 349.167,160.5 291.833,160.5 234.5,160.5C 231.391,169.387 227.724,178.053 223.5,186.5C 223.167,186.5 222.833,186.5 222.5,186.5C 216.833,186.5 211.167,186.5 205.5,186.5C 210.219,178.23 214.552,169.73 218.5,161C 180.501,160.5 142.501,160.333 104.5,160.5C 95.6778,146.866 87.3445,132.866 79.5,118.5C 90.4618,116.719 101.462,114.885 112.5,113C 127.325,109.508 140.992,103.508 153.5,95C 167.8,83.0337 181.134,70.0337 193.5,56C 210.766,40.934 230.932,34.1007 254,35.5C 278.079,33.8016 299.245,40.635 317.5,56C 328.833,68.6667 340.833,80.6667 353.5,92C 360.667,97.42 368.333,102.087 376.5,106C 394.25,112.783 412.583,116.95 431.5,118.5 Z"/></g>
<g><path style="opacity:1" fill="#35925d" d="M 104.5,160.5 C 142.501,160.333 180.501,160.5 218.5,161C 214.552,169.73 210.219,178.23 205.5,186.5C 205.167,186.5 204.833,186.5 204.5,186.5C 169.5,186.5 134.5,186.5 99.5,186.5C 100.736,177.747 102.403,169.081 104.5,160.5 Z"/></g>
<g><path style="opacity:1" fill="#34925d" d="M 406.5,160.5 C 408.597,169.081 410.264,177.747 411.5,186.5C 348.833,186.5 286.167,186.5 223.5,186.5C 227.724,178.053 231.391,169.387 234.5,160.5C 291.833,160.5 349.167,160.5 406.5,160.5 Z"/></g>
<g><path style="opacity:0.986" fill="#7bb676" d="M 99.5,186.5 C 134.5,186.5 169.5,186.5 204.5,186.5C 203.958,189.919 201.958,191.586 198.5,191.5C 185.497,190.28 172.497,190.447 159.5,192C 142.707,194.785 134.873,204.619 136,221.5C 137.183,228.938 138.683,236.272 140.5,243.5C 140.586,244.496 140.252,245.329 139.5,246C 129.31,251.451 118.644,255.618 107.5,258.5C 99.8799,235.063 97.2132,211.063 99.5,186.5 Z"/></g>
<g><path style="opacity:1" fill="#506465" d="M 204.5,186.5 C 204.833,186.5 205.167,186.5 205.5,186.5C 211.167,186.5 216.833,186.5 222.5,186.5C 221,190.173 219,193.506 216.5,196.5C 210.692,193.883 204.692,192.216 198.5,191.5C 201.958,191.586 203.958,189.919 204.5,186.5 Z"/></g>
<g><path style="opacity:0.995" fill="#7cb676" d="M 222.5,186.5 C 222.833,186.5 223.167,186.5 223.5,186.5C 286.167,186.5 348.833,186.5 411.5,186.5C 415.967,236.772 400.967,280.105 366.5,316.5C 358.68,322.81 350.68,328.977 342.5,335C 295.516,363.754 246.183,368.42 194.5,349C 185.515,344.842 176.848,340.175 168.5,335C 160.32,328.977 152.32,322.81 144.5,316.5C 132.283,303.739 122.283,289.406 114.5,273.5C 125.548,269.148 136.548,264.482 147.5,259.5C 161.838,279.885 180.171,284.385 202.5,273C 204.155,271.556 204.822,269.722 204.5,267.5C 210.709,293.963 227.375,308.963 254.5,312.5C 284.467,309.532 301.801,293.198 306.5,263.5C 309.661,232.668 296.661,211.834 267.5,201C 252.188,197.496 238.188,200.329 225.5,209.5C 223.696,204.358 220.696,200.025 216.5,196.5C 219,193.506 221,190.173 222.5,186.5 Z"/></g>
<g><path style="opacity:1" fill="#3a484a" d="M 198.5,191.5 C 204.692,192.216 210.692,193.883 216.5,196.5C 220.696,200.025 223.696,204.358 225.5,209.5C 208.418,223.653 201.418,241.653 204.5,263.5C 204.5,264.833 204.5,266.167 204.5,267.5C 204.822,269.722 204.155,271.556 202.5,273C 180.171,284.385 161.838,279.885 147.5,259.5C 144.575,254.327 142.241,248.993 140.5,243.5C 138.683,236.272 137.183,228.938 136,221.5C 134.873,204.619 142.707,194.785 159.5,192C 172.497,190.447 185.497,190.28 198.5,191.5 Z"/></g>
<g><path style="opacity:1" fill="#f9db5f" d="M 306.5,263.5 C 272.458,283.43 238.458,283.43 204.5,263.5C 201.418,241.653 208.418,223.653 225.5,209.5C 238.188,200.329 252.188,197.496 267.5,201C 296.661,211.834 309.661,232.668 306.5,263.5 Z"/></g>
<g><path style="opacity:1" fill="#3c4b4b" d="M 338.5,214.5 C 340.527,214.338 342.527,214.505 344.5,215C 346,216.5 347.5,218 349,219.5C 349.667,227.167 349.667,234.833 349,242.5C 347.171,248.158 343.337,249.992 337.5,248C 335.513,246.681 334.346,244.848 334,242.5C 333.333,235.167 333.333,227.833 334,220.5C 335.332,218.34 336.832,216.34 338.5,214.5 Z"/></g>
<g><path style="opacity:0.975" fill="#506366" d="M 140.5,243.5 C 142.241,248.993 144.575,254.327 147.5,259.5C 136.548,264.482 125.548,269.148 114.5,273.5C 105.824,274.989 102.324,271.322 104,262.5C 104.66,260.676 105.827,259.343 107.5,258.5C 118.644,255.618 129.31,251.451 139.5,246C 140.252,245.329 140.586,244.496 140.5,243.5 Z"/></g>
<g><path style="opacity:1" fill="#f1c42c" d="M 204.5,263.5 C 238.458,283.43 272.458,283.43 306.5,263.5C 301.801,293.198 284.467,309.532 254.5,312.5C 227.375,308.963 210.709,293.963 204.5,267.5C 204.5,266.167 204.5,264.833 204.5,263.5 Z"/></g>
<g><path style="opacity:0.997" fill="#34925d" d="M 144.5,316.5 C 152.32,322.81 160.32,328.977 168.5,335C 176.848,340.175 185.515,344.842 194.5,349C 246.183,368.42 295.516,363.754 342.5,335C 350.68,328.977 358.68,322.81 366.5,316.5C 367.892,320.949 369.559,325.282 371.5,329.5C 383.365,381.737 367.031,422.404 322.5,451.5C 315.878,455.598 308.878,458.931 301.5,461.5C 301.565,461.062 301.399,460.728 301,460.5C 291.868,463.618 282.702,466.285 273.5,468.5C 261.5,469.833 249.5,469.833 237.5,468.5C 228.201,466.509 218.868,464.175 209.5,461.5C 202.122,458.931 195.122,455.598 188.5,451.5C 143.969,422.404 127.635,381.737 139.5,329.5C 141.441,325.282 143.108,320.949 144.5,316.5 Z"/></g>
<g><path style="opacity:0.972" fill="#7bb676" d="M 139.5,329.5 C 127.635,381.737 143.969,422.404 188.5,451.5C 158.275,446.943 132.442,433.943 111,412.5C 91.8465,391.22 85.1799,366.554 91,338.5C 97.6556,320.924 109.822,315.424 127.5,322C 131.696,324.261 135.696,326.761 139.5,329.5 Z"/></g>
<g><path style="opacity:0.972" fill="#7bb676" d="M 322.5,451.5 C 367.031,422.404 383.365,381.737 371.5,329.5C 381.315,320.618 392.648,317.784 405.5,321C 412.557,324.921 417.39,330.754 420,338.5C 425.82,366.554 419.153,391.22 400,412.5C 378.558,433.943 352.725,446.943 322.5,451.5 Z"/></g>
<g><path style="opacity:1" fill="#f1c42d" d="M 209.5,461.5 C 218.868,464.175 228.201,466.509 237.5,468.5C 237.5,475.167 237.5,481.833 237.5,488.5C 227.892,487.645 218.558,485.645 209.5,482.5C 209.5,475.5 209.5,468.5 209.5,461.5 Z"/></g>
<g><path style="opacity:1" fill="#f0c32d" d="M 301.5,461.5 C 301.5,468.5 301.5,475.5 301.5,482.5C 292.308,485.131 282.975,487.131 273.5,488.5C 273.5,481.833 273.5,475.167 273.5,468.5C 282.702,466.285 291.868,463.618 301,460.5C 301.399,460.728 301.565,461.062 301.5,461.5 Z"/></g>
<g><path style="opacity:0.974" fill="#f9db5f" d="M 209.5,482.5 C 218.558,485.645 227.892,487.645 237.5,488.5C 238.128,494.762 237.295,500.762 235,506.5C 233.035,508.55 230.868,510.217 228.5,511.5C 214.5,511.5 200.5,511.5 186.5,511.5C 177.198,506.029 175.031,498.362 180,488.5C 181.731,486.383 183.898,484.883 186.5,484C 194.344,483.829 202.011,483.329 209.5,482.5 Z"/></g>
<g><path style="opacity:0.974" fill="#f9db5f" d="M 301.5,482.5 C 308.989,483.329 316.656,483.829 324.5,484C 333.83,489.282 335.996,496.782 331,506.5C 329.035,508.55 326.868,510.217 324.5,511.5C 310.5,511.5 296.5,511.5 282.5,511.5C 278.521,509.685 275.688,506.685 274,502.5C 273.501,497.845 273.334,493.179 273.5,488.5C 282.975,487.131 292.308,485.131 301.5,482.5 Z"/></g>
</svg>
